<?xml version="1.0" encoding="UTF-8" standalone="no"?>
<svg
   xmlns:dc="http://purl.org/dc/elements/1.1/"
   xmlns:cc="http://creativecommons.org/ns#"
   xmlns:rdf="http://www.w3.org/1999/02/22-rdf-syntax-ns#"
   xmlns:svg="http://www.w3.org/2000/svg"
   xmlns="http://www.w3.org/2000/svg"
   xmlns:sodipodi="http://sodipodi.sourceforge.net/DTD/sodipodi-0.dtd"
   xmlns:inkscape="http://www.inkscape.org/namespaces/inkscape"
   inkscape:version="1.0 (1.0+r73+1)"
   sodipodi:docname="ClusterSheepSheep.svg"
   viewBox="0 0 1000 799.66805"
   height="799.66803"
   width="1000"
   id="svg10"
   version="1.1">
  <sodipodi:namedview
     inkscape:current-layer="layer1"
     inkscape:window-maximized="1"
     inkscape:window-y="0"
     inkscape:window-x="0"
     inkscape:cy="100.83647"
     inkscape:cx="-97.038275"
     inkscape:zoom="0.40016573"
     showgrid="false"
     id="namedview57"
     inkscape:window-height="1016"
     inkscape:window-width="1920"
     inkscape:pageshadow="2"
     inkscape:pageopacity="0"
     guidetolerance="10"
     gridtolerance="10"
     objecttolerance="10"
     borderopacity="1"
     bordercolor="#666666"
     pagecolor="#ffffff"
     inkscape:document-rotation="0"
     fit-margin-top="0"
     fit-margin-left="0"
     fit-margin-right="0"
     fit-margin-bottom="0" />
  <metadata
     id="metadata16">
    <rdf:RDF>
      <cc:Work
         rdf:about="">
        <dc:format>image/svg+xml</dc:format>
        <dc:type
           rdf:resource="http://purl.org/dc/dcmitype/StillImage" />
        <dc:title></dc:title>
      </cc:Work>
    </rdf:RDF>
  </metadata>
  <g
     transform="matrix(3.4350224,0,0,3.4350224,-1079.1649,-782.38007)"
     id="layer1">
    <path
       id="path860"
       d="m 411.32447,320.00046 c 0,0 1.7815,3.47867 2.23375,5.36101 0.45358,1.88794 0.84882,3.90824 0.44674,5.80779 -0.45529,2.15107 -1.44458,4.39248 -3.12725,5.80777 -1.80194,1.5156 -4.35259,2.40066 -6.70125,2.23375 -2.98936,-0.21228 -6.24961,-1.61858 -8.04154,-4.02076 -1.53709,-2.06057 -1.34023,-7.59476 -1.34023,-7.59476 0,0 -2.1125,6.00627 -4.02078,8.48826 -1.54573,2.01042 -3.52407,3.81159 -5.80777,4.91427 -2.05138,0.99048 -4.49728,1.91622 -6.70127,1.34024 -2.65666,-0.69427 -4.93315,-2.95396 -6.25451,-5.361 -1.01343,-1.84614 -0.89352,-6.25451 -0.89352,-6.25451 0,0 -2.59936,5.04922 -4.46748,7.14801 -1.26797,1.42446 -2.73537,2.77617 -4.4675,3.574 -1.61895,0.74567 -3.50279,1.342 -5.25246,1.00209 -1.95505,-0.37984 -3.69309,-1.75315 -5.02286,-3.23584 -1.1116,-1.23949 -1.7622,-2.87074 -2.23375,-4.4675 -0.76383,-2.58658 -0.8935,-8.04152 -0.8935,-8.04152 0,0 -3.88549,5.49321 -6.70125,7.14801 -1.58806,0.93325 -3.52102,1.42594 -5.36101,1.34025 -1.79417,-0.0836 -3.55007,-0.85155 -5.08335,-1.78701 -1.13497,-0.69249 -2.17542,-1.62472 -2.8977,-2.74101 -1.01642,-1.57091 -1.70726,-3.43469 -1.84748,-5.30053 -0.18189,-2.41736 0.20382,-5.00667 1.34025,-7.14799 1.31413,-2.47621 3.48713,-4.62808 5.97685,-5.91637 2.09803,-1.08557 6.97893,-1.23167 6.97893,-1.23167 0,0 -3.86322,-1.35824 -5.361,-2.68049 -1.61011,-1.42136 -3.01608,-3.28703 -3.57402,-5.36103 -0.62017,-2.30536 -0.20859,-4.85238 0.44676,-7.14801 0.37768,-1.32297 1.09292,-2.56313 1.95608,-3.63449 1.04038,-1.29135 2.28241,-2.52116 3.77878,-3.23587 1.93554,-0.92444 4.23063,-1.1655 6.3274,-1.17116 2.09679,-0.004 7.5948,2.23377 7.5948,2.23377 0,0 -4.49611,-2.74385 -5.80779,-4.91426 -1.42023,-2.35007 -1.84154,-5.29615 -1.78701,-8.04152 0.036,-1.81058 0.46157,-3.69666 1.38834,-5.25246 1.13958,-1.9129 2.91198,-3.50892 4.86619,-4.57609 2.15552,-1.17709 4.69398,-1.68899 7.14801,-1.78699 1.81022,-0.0723 3.6811,0.21532 5.36103,0.89348 2.68117,1.0825 7.14802,4.91427 7.14802,4.91427 0,0 -2.91646,-6.39697 -3.12728,-9.82851 -0.14847,-2.41963 0.27275,-4.97152 1.34027,-7.14801 0.78964,-1.60998 2.03499,-3.10043 3.57401,-4.02076 2.75901,-1.6499 6.16904,-2.34488 9.38177,-2.23375 2.49482,0.0862 5.03091,0.91108 7.14801,2.23375 3.12691,1.95355 7.59476,8.04152 7.59476,8.04152 0,0 -1.2992,-6.66171 -0.44674,-9.82853 0.64426,-2.39329 2.17645,-4.59884 4.02076,-6.25451 1.23894,-1.11223 2.87599,-1.74477 4.46752,-2.23375 2.15411,-0.66191 4.44981,-0.99053 6.70127,-0.89351 1.37166,0.059 2.81722,0.23282 4.02076,0.89351 1.47688,0.81074 2.7541,2.10215 3.574,3.57397 1.26564,2.27202 1.78701,7.5948 1.78701,7.5948 0,0 -0.9494,-6.69294 0,-9.82853 0.77796,-2.56944 2.45488,-4.92457 4.4675,-6.70129 2.24673,-1.98333 5.08332,-3.5407 8.04152,-4.02076 2.07881,-0.33735 4.26251,0.21011 6.25451,0.89351 1.13562,0.38965 2.11628,1.13944 3.12727,1.787 1.0787,0.69098 2.17191,1.38034 3.12726,2.23378 1.49411,1.33473 4.02076,4.46752 4.02076,4.46752 l 2.23377,4.02076 0.8935,4.91424 v -6.25451 c 0,0 0.94384,-3.38872 1.78699,-4.91429 0.82133,-1.48604 1.94707,-2.80006 3.12726,-4.02075 0.80844,-0.83614 1.69836,-1.61072 2.68051,-2.23375 1.23037,-0.78045 2.53834,-1.53738 3.96246,-1.84529 1.91127,-0.41327 3.97559,-0.44162 5.86607,0.0584 1.48224,0.39196 2.79672,1.31049 4.02076,2.23376 1.17691,0.88775 2.16954,2.00649 3.12725,3.12725 1.31581,1.53991 3.574,4.91429 3.574,4.91429 l -0.44674,5.361 0.44674,-5.361 c 0,0 3.26198,-3.70154 5.36102,-4.91429 2.56917,-1.48437 5.55577,-2.22845 8.48829,-2.68051 2.20768,-0.34028 4.53418,-0.54175 6.70125,0 2.45599,0.61402 4.80638,1.89521 6.70127,3.57401 1.36058,1.20546 2.31013,2.84376 3.12725,4.46751 0.84678,1.68264 1.78701,5.36104 1.78701,5.36104 v 8.93501 l 5.36101,-5.80775 c 0,0 2.8927,-1.69344 4.46752,-2.23377 1.43645,-0.49287 2.94942,-0.85136 4.4675,-0.89349 2.10519,-0.0584 4.23059,0.31135 6.25453,0.89349 1.40951,0.40539 2.79035,0.98872 4.02074,1.78701 1.68074,1.09041 3.2788,2.40804 4.46752,4.02075 1.2651,1.7163 2.31005,3.70801 2.68052,5.80777 0.31153,1.76594 -0.44675,5.36101 -0.44675,5.36101 l -1.34026,5.361 1.34026,-5.361 c 0,0 5.65848,-0.58846 8.48827,-0.44674 1.95624,0.0979 3.95223,0.26621 5.80776,0.8935 1.76765,0.59755 3.38386,1.61295 4.91425,2.68049 1.29835,0.90566 2.48746,1.97602 3.57401,3.12726 1.16543,1.2348 2.35691,2.50767 3.12726,4.02078 0.97527,1.91559 1.28053,4.10712 1.78701,6.19619 0.36228,1.49444 1.05464,2.99656 0.8935,4.52582 -0.23772,2.25576 -2.68051,6.25453 -2.68051,6.25453 l -4.91427,3.574 7.14802,1.78701 c 0,0 3.52349,1.43657 4.91428,2.68051 1.35488,1.21179 2.32904,2.83436 3.12724,4.4675 0.88942,1.81976 1.55265,3.79589 1.78703,5.80777 0.25903,2.22368 0.24167,4.57103 -0.44679,6.70125 -0.86405,2.67363 -2.59017,5.05748 -4.46748,7.14801 -1.77151,1.97272 -6.25453,4.91429 -6.25453,4.91429 l -4.46752,-0.44674 c 0,0 6.92916,0.91265 9.82853,2.68047 2.06981,1.26204 3.8171,3.19934 4.91426,5.36103 0.68735,1.35422 0.78832,2.9525 0.89353,4.46752 0.17559,2.52988 0.20815,5.14482 -0.44679,7.59477 -0.42992,1.60846 -1.09721,3.25085 -2.23375,4.46751 -2.00497,2.14634 -7.59475,4.4675 -7.59475,4.4675 0,0 4.03532,0.0599 5.80774,0.89352 1.6227,0.76321 2.88472,2.18657 4.02076,3.57402 1.31071,1.60065 2.5253,3.38171 3.12726,5.36101 0.69468,2.28404 0.84169,4.79358 0.44676,7.14801 -0.32024,1.90925 -1.15653,3.75248 -2.23373,5.361 -0.82033,1.22491 -3.12727,3.12726 -3.12727,3.12726 l -5.80775,2.23377 v 0 h 2.23373 c 0,0 3.15888,2.6589 4.02076,4.4675 1.23228,2.58586 1.90241,5.67951 1.34024,8.48826 -0.44607,2.22896 -1.78327,4.40764 -3.57399,5.80779 -2.70841,2.11765 -9.82853,3.12726 -9.82853,3.12726 l -5.80775,-4.02078 4.4675,3.12727 c 0,0 1.34854,5.97662 0.89351,8.935 -0.34481,2.24187 -1.21551,4.52288 -2.68052,6.25454 -1.60077,1.89217 -3.83294,3.49266 -6.25451,4.02076 -2.05765,0.44873 -4.32164,-0.0573 -6.2545,-0.89351 -1.75029,-0.75724 -4.46751,-3.574 -4.46751,-3.574 l -3.57401,-4.46752 4.02076,6.25451 c 0,0 -0.0935,5.34664 -1.34027,7.59478 -0.97162,1.75211 -2.71464,3.05046 -4.4675,4.02076 -1.89701,1.05009 -4.0889,1.68033 -6.25451,1.78701 -1.66294,0.0818 -4.91429,-0.89351 -4.91429,-0.89351 l -4.02076,-3.12725 -2.68049,-4.46752 c 0,0 2.68562,5.89847 2.23375,8.93502 -0.3834,2.57661 -2.18914,4.84895 -4.02074,6.70127 -1.5983,1.61634 -3.62059,2.95496 -5.80779,3.57402 -1.71946,0.48668 -3.57946,0.13978 -5.361,0 -2.8557,-0.224 -5.98035,0.0438 -8.48826,-1.34027 -1.38598,-0.76488 -3.12728,-3.57402 -3.12728,-3.57402 l -0.8935,-5.80774 0.8935,5.80774 c 0,0 -1.63919,3.78335 -5.80774,8.93505 -1.15871,1.43193 -4.93139,2.49326 -7.5948,3.12725 -1.88885,0.44963 -3.89218,0.76386 -5.80775,0.44677 -2.23777,-0.37047 -4.27252,-1.57755 -6.25451,-2.68054 -1.58838,-0.88389 -4.46752,-3.12725 -4.46752,-3.12725 v 0 l -0.89351,-8.04152 0.89351,8.04152 c 0,0 -3.05658,3.26334 -4.91427,4.4675 -2.18235,1.41463 -4.6215,2.51038 -7.14801,3.12727 -2.17482,0.53105 -4.47145,0.64622 -6.70125,0.44677 -2.44625,-0.21877 -7.14802,-1.78701 -7.14802,-1.78701 l -4.02078,-3.12728 -1.78701,-6.70127 1.78701,6.70127 c 0,0 -3.23315,3.75283 -5.36098,4.91429 -2.56812,1.40173 -5.58672,1.85835 -8.4883,2.23375 -2.51067,0.32482 -5.18882,0.78762 -7.59476,0 -2.63254,-0.86184 -5.01912,-2.71349 -6.70127,-4.91427 -1.25957,-1.64794 -2.23375,-5.80776 -2.23375,-5.80776 l -0.89353,-6.70126 c 0,0 -1.90389,4.52921 -3.57397,6.25451 -1.58103,1.63325 -3.63972,2.89095 -5.80779,3.57402 -2.41877,0.76204 -5.08068,0.77925 -7.59478,0.44672 -1.40054,-0.18515 -2.79494,-0.63792 -4.02076,-1.34022 -1.37352,-0.78698 -2.62586,-1.85962 -3.574,-3.12728 -1.27704,-1.70741 -2.22309,-3.72524 -2.68051,-5.80775 -0.41529,-1.89087 0,-5.80779 0,-5.80779 l 2.23377,-4.4675 -4.91426,4.02076 c 0,0 -4.40905,1.48663 -6.70127,1.78699 -1.91952,0.25157 -3.88126,0.19079 -5.80777,0 -2.26692,-0.22446 -4.60258,-0.4544 -6.70125,-1.34025 -1.72906,-0.72978 -3.35243,-1.82243 -4.64243,-3.18555 -1.30206,-1.37589 -2.32901,-3.06713 -2.95235,-4.85596 -0.79017,-2.26749 -1.00668,-4.74946 -0.89353,-7.14802 0.0649,-1.37141 0.20686,-2.83186 0.89353,-4.02076 1.21244,-2.0992 5.361,-4.91428 5.361,-4.91428"
       style="fill:none;fill-opacity:1;stroke:#000000;stroke-width:3.23472;stroke-linecap:round;stroke-linejoin:round;stroke-miterlimit:4;stroke-dasharray:none;stroke-opacity:1" />
    <path
       id="path864"
       d="m 351.90654,419.62598 -8.04147,-3.57401 -3.57404,-4.91425 -0.89351,-4.02078 0.44677,-6.25451 -3.57402,0.44675 -5.80777,-2.68052 -4.91424,-3.57397 -0.44676,-4.02078 v -2.68052"
       style="fill:none;stroke:#000000;stroke-width:0.924203px;stroke-linecap:butt;stroke-linejoin:miter;stroke-opacity:1" />
    <path
       id="path866"
       d="M 358.16107,410.69094 Z"
       style="fill:none;stroke:#000000;stroke-width:0.924203px;stroke-linecap:butt;stroke-linejoin:miter;stroke-opacity:1" />
    <path
       id="path868"
       d="M 358.16107,410.69094 Z"
       style="fill:none;stroke:#000000;stroke-width:0.924203px;stroke-linecap:butt;stroke-linejoin:miter;stroke-opacity:1" />
    <path
       id="path870"
       d="m 351.90654,419.62598 c 0,0 -5.76082,-1.72931 -8.04147,-3.57401 -1.57484,-1.27379 -2.74123,-3.06792 -3.57404,-4.91425 -0.56452,-1.25153 -0.79242,-2.65155 -0.89351,-4.02078 -0.15389,-2.08448 0.44677,-6.25451 0.44677,-6.25451 0,0 -6.46145,-0.88994 -9.38179,-2.23377 -1.84001,-0.84668 -3.93559,-1.80064 -4.91424,-3.57397 -1.08171,-1.96007 -0.44676,-6.7013 -0.44676,-6.7013 v 0"
       style="fill:none;stroke:#000000;stroke-width:3.23472;stroke-linecap:butt;stroke-linejoin:miter;stroke-miterlimit:4;stroke-dasharray:none;stroke-opacity:1" />
    <path
       id="path872"
       d="m 336.71703,335.19002 c 0,0 -3.16873,2.17755 -4.46752,3.57401 -1.96916,2.11726 -3.39137,4.69009 -4.91426,7.14804 -1.61502,2.60661 -3.1369,5.27883 -4.4675,8.04148 -1.18803,2.46662 -2.4069,4.95344 -3.12726,7.59479 -1.10828,4.06359 -2.16527,8.31404 -1.78701,12.50902 0.29604,3.28313 1.53607,6.49481 3.12726,9.38177 1.02167,1.85362 2.33422,3.63551 4.02076,4.91426 2.07237,1.57132 4.68186,2.30158 7.14801,3.12726 3.04836,1.02063 6.20276,1.75627 9.38176,2.23377 4.57473,0.68711 9.23142,1.16786 13.84929,0.89348 4.08193,-0.24251 8.10277,-1.21244 12.06228,-2.23375 3.19194,-0.82331 6.28648,-1.99343 9.38179,-3.12725 3.01206,-1.10333 6.02899,-2.21576 8.93502,-3.574 1.99191,-0.93101 4.00595,-1.86717 5.80777,-3.12725 2.93898,-2.0554 6.33306,-3.99469 8.04149,-7.14802 1.43469,-2.64798 0.46648,-6.05293 1.34029,-8.93504 0.81174,-2.67754 2.56439,-4.98535 3.574,-7.59476 0.73089,-1.88902 1.43037,-3.81393 1.78701,-5.80777 0.47268,-2.64272 0.94968,-5.40441 0.44674,-8.04149 -0.39942,-2.09445 -2.68049,-5.80779 -2.68049,-5.80779"
       style="fill:none;fill-opacity:1;stroke:#000000;stroke-width:3.23472;stroke-linecap:butt;stroke-linejoin:miter;stroke-miterlimit:4;stroke-dasharray:none;stroke-opacity:1" />
    <path
       id="path874"
       d="m 414.00496,331.16926 c 0,0 5.11808,1.96039 7.59478,3.12725 2.29016,1.07898 4.58695,2.18168 6.70127,3.57402 1.59273,1.04885 3.14762,2.19748 4.4675,3.574 1.91714,1.99939 3.69566,4.21372 4.91427,6.70127 0.95389,1.94715 1.40408,4.12032 1.78699,6.25453 0.34292,1.91112 0.44676,3.86611 0.44676,5.80775 0,1.94164 0.0291,3.9253 -0.44676,5.80777 -0.71861,2.84393 -1.96198,5.59082 -3.574,8.04151 -1.44784,2.20111 -3.29413,4.17403 -5.36101,5.80777 -2.14467,1.69524 -4.56578,3.12329 -7.14801,4.02076 -2.70571,0.94039 -5.62659,1.46677 -8.48828,1.34025 -2.45358,-0.10853 -4.95818,-0.675 -7.14802,-1.78701 -2.07408,-1.05317 -4.28396,-2.40572 -5.361,-4.4675 -1.59188,-3.04727 -1.41387,-6.87687 -0.89353,-10.27527 0.41438,-2.70628 1.60861,-5.31677 3.12728,-7.59476 1.7523,-2.62848 3.9892,-5.08139 6.70127,-6.70127 1.33476,-0.79726 2.92119,-1.17863 4.4675,-1.34027 1.7835,-0.18645 3.76028,-0.36144 5.36101,0.44674 1.41313,0.71348 2.50389,2.11891 3.12727,3.57404 0.6477,1.51194 0.68429,3.28666 0.44675,4.91425 -0.23164,1.58705 -0.81138,3.19447 -1.78701,4.46752 -0.90584,1.18197 -2.16126,2.20959 -3.574,2.68049 -1.41276,0.47092 -4.46752,0 -4.46752,0"
       style="fill:none;stroke:#000000;stroke-width:3.23472;stroke-linecap:round;stroke-linejoin:round;stroke-miterlimit:4;stroke-dasharray:none;stroke-opacity:1" />
    <path
       id="path876"
       d="m 325.54826,395.05469 c 0,0 -4.60145,4.6465 -6.70127,7.14799 -0.95745,1.1406 -2.2096,2.16125 -2.68052,3.57402 -0.47092,1.41276 -0.5292,3.07555 0,4.4675 0.63727,1.67616 2.02466,3.11792 3.57402,4.02076 1.84221,1.07353 4.12251,1.31281 6.25451,1.34027 2.42398,0.0312 4.83128,-0.62647 7.14801,-1.34027 2.48543,-0.76579 7.14802,-3.12724 7.14802,-3.12724"
       style="fill:none;stroke:#000000;stroke-width:3.23472;stroke-linecap:butt;stroke-linejoin:miter;stroke-miterlimit:4;stroke-dasharray:none;stroke-opacity:1" />
    <path
       id="path878"
       d="m 370.22335,437.04929 c 0,0 -2.64975,4.64957 -3.57399,7.14799 -1.06511,2.87932 -2.81932,5.9214 -2.23375,8.93505 0.38631,1.9883 1.85101,3.84939 3.57399,4.91426 1.54107,0.95244 3.54936,0.89351 5.36103,0.89351 1.81164,0 3.69542,-0.18081 5.361,-0.89351 2.05362,-0.87877 5.36101,-4.02076 5.36101,-4.02076 l 3.57402,-4.02076"
       style="fill:none;stroke:#000000;stroke-width:3.23472;stroke-linecap:round;stroke-linejoin:round;stroke-miterlimit:4;stroke-dasharray:none;stroke-opacity:1" />
    <ellipse
       ry="13.460397"
       rx="13.894603"
       cy="348.1582"
       cx="503.80185"
       id="path880"
       style="fill:#000000;fill-opacity:1;stroke:#000000;stroke-width:3.14388;stroke-linecap:round;stroke-linejoin:round;stroke-miterlimit:4;stroke-dasharray:none;stroke-opacity:1" />
    <ellipse
       ry="7.1926947"
       rx="7.4106555"
       cy="400.42111"
       cx="477.22037"
       id="path882"
       style="fill:#000000;fill-opacity:1;stroke:#000000;stroke-width:3.1563;stroke-linecap:round;stroke-linejoin:round;stroke-miterlimit:4;stroke-dasharray:none;stroke-opacity:1" />
    <ellipse
       ry="6.9702044"
       rx="7.1880231"
       cy="382.32751"
       cx="517.651"
       id="path884"
       style="fill:#000000;fill-opacity:1;stroke:#000000;stroke-width:3.15423;stroke-linecap:round;stroke-linejoin:round;stroke-miterlimit:4;stroke-dasharray:none;stroke-opacity:1" />
    <ellipse
       ry="8.4517756"
       rx="8.6802025"
       cy="313.746"
       cx="538.87708"
       id="path886"
       style="fill:#000000;fill-opacity:1;stroke:#000000;stroke-width:3.30787;stroke-linecap:round;stroke-linejoin:round;stroke-miterlimit:4;stroke-dasharray:none;stroke-opacity:1" />
    <ellipse
       ry="6.3038278"
       rx="6.5212007"
       cy="274.88443"
       cx="489.72906"
       id="path888"
       style="fill:#000000;fill-opacity:1;stroke:#000000;stroke-width:3.14779;stroke-linecap:round;stroke-linejoin:round;stroke-miterlimit:4;stroke-dasharray:none;stroke-opacity:1" />
    <ellipse
       ry="7.5122328"
       rx="7.9817472"
       cy="309.27832"
       cx="469.87146"
       id="path890"
       style="fill:#000000;fill-opacity:1;stroke:#000000;stroke-width:3.39955;stroke-linecap:round;stroke-linejoin:round;stroke-miterlimit:4;stroke-dasharray:none;stroke-opacity:1" />
    <path
       id="path892"
       d="m 476.99687,315.08622 18.31681,22.78431"
       style="fill:none;stroke:#000000;stroke-width:3.23472;stroke-linecap:butt;stroke-linejoin:miter;stroke-miterlimit:4;stroke-dasharray:none;stroke-opacity:1" />
    <path
       id="path894"
       d="m 487.27214,278.89936 -14.29603,24.12456"
       style="fill:none;stroke:#000000;stroke-width:3.23472;stroke-linecap:butt;stroke-linejoin:miter;stroke-miterlimit:4;stroke-dasharray:none;stroke-opacity:1" />
    <path
       id="path896"
       d="m 490.39939,282.47336 12.95581,52.26992"
       style="fill:none;stroke:#000000;stroke-width:3.23472;stroke-linecap:butt;stroke-linejoin:miter;stroke-miterlimit:4;stroke-dasharray:none;stroke-opacity:1" />
    <path
       id="path898"
       d="m 496.65392,278.4526 38.42059,33.0596"
       style="fill:none;stroke:#000000;stroke-width:3.23472;stroke-linecap:butt;stroke-linejoin:miter;stroke-miterlimit:4;stroke-dasharray:none;stroke-opacity:1" />
    <path
       id="path900"
       d="m 542.66928,315.9797 -23.23105,62.54519"
       style="fill:none;stroke:#000000;stroke-width:3.23472;stroke-linecap:butt;stroke-linejoin:miter;stroke-miterlimit:4;stroke-dasharray:none;stroke-opacity:1" />
    <path
       id="path902"
       d="m 510.50321,360.65482 4.46752,14.74281"
       style="fill:none;stroke:#000000;stroke-width:3.23472;stroke-linecap:butt;stroke-linejoin:miter;stroke-miterlimit:4;stroke-dasharray:none;stroke-opacity:1" />
    <path
       id="path904"
       d="m 513.63046,338.76403 20.10382,-17.87006"
       style="fill:none;stroke:#000000;stroke-width:3.23472;stroke-linecap:butt;stroke-linejoin:miter;stroke-miterlimit:4;stroke-dasharray:none;stroke-opacity:1" />
    <path
       id="path906"
       d="m 477.44363,310.6187 52.26987,2.68051"
       style="fill:none;stroke:#000000;stroke-width:3.23472;stroke-linecap:butt;stroke-linejoin:miter;stroke-miterlimit:4;stroke-dasharray:none;stroke-opacity:1" />
    <path
       id="path908"
       d="m 495.76044,360.20808 -15.63632,33.05958"
       style="fill:none;stroke:#000000;stroke-width:3.23472;stroke-linecap:butt;stroke-linejoin:miter;stroke-miterlimit:4;stroke-dasharray:none;stroke-opacity:1" />
    <path
       id="path910"
       d="m 511.39671,386.11964 -26.80507,11.16878"
       style="fill:none;stroke:#000000;stroke-width:3.23472;stroke-linecap:butt;stroke-linejoin:miter;stroke-miterlimit:4;stroke-dasharray:none;stroke-opacity:1" />
    <path
       id="path912"
       d="m 573.04837,284.70715 c 0,0 5.32554,-1.38287 8.04154,-1.78703 1.92048,-0.28577 3.87729,-0.65476 5.80775,-0.44676 1.5458,0.16648 3.27765,0.33952 4.4675,1.34029 1.01935,0.85734 1.4168,2.29453 1.78701,3.574 0.41598,1.43761 0.77391,3.00711 0.44676,4.46752 -0.37965,1.69465 -1.61174,3.09867 -2.68051,4.4675 -1.42568,1.82595 -2.98943,3.6252 -4.91427,4.91426 -1.60854,1.07722 -5.36102,2.23375 -5.36102,2.23375"
       style="fill:none;stroke:#000000;stroke-width:3.23472;stroke-linecap:butt;stroke-linejoin:miter;stroke-miterlimit:4;stroke-dasharray:none;stroke-opacity:1" />
    <path
       id="path914"
       d="m 581.53663,335.63678 c 0,0 6.30728,0.61446 9.38179,1.34025 1.83326,0.43276 3.60768,1.09849 5.361,1.787 1.67488,0.65768 3.56078,1.04807 4.91425,2.23376 1.05677,0.92573 1.90293,2.20863 2.23377,3.57399 0.4223,1.74277 0.27223,3.71827 -0.44674,5.36103 -0.97195,2.22081 -2.99603,3.87876 -4.91429,5.36103 -2.26661,1.75143 -4.90117,3.04605 -7.59473,4.02073 -2.71896,0.98387 -8.48831,1.78703 -8.48831,1.78703"
       style="fill:none;stroke:#000000;stroke-width:3.23472;stroke-linecap:butt;stroke-linejoin:miter;stroke-miterlimit:4;stroke-dasharray:none;stroke-opacity:1" />
    <path
       id="path916"
       d="m 379.15838,351.27305 c -2.09191,0.32177 -3.85324,2.18943 -4.91427,4.02079 -0.90818,1.56756 -1.0882,3.55984 -0.89348,5.36098 0.17256,1.59461 0.50096,3.50907 1.78699,4.46752 1.31886,0.98293 3.41125,1.11492 4.91426,0.44676 2.04116,-0.90739 3.38086,-3.22087 4.02076,-5.36102 0.68392,-2.28726 0.95269,-5.21389 -0.44674,-7.14802 -0.94022,-1.29939 -2.88227,-2.03082 -4.46752,-1.78701 z"
       style="fill:none;stroke:#000000;stroke-width:3.23472;stroke-linecap:butt;stroke-linejoin:miter;stroke-miterlimit:4;stroke-dasharray:none;stroke-opacity:1" />
    <path
       style="fill:none;stroke:#000000;stroke-width:3.23472;stroke-linecap:butt;stroke-linejoin:miter;stroke-miterlimit:4;stroke-dasharray:none;stroke-opacity:1"
       d="m 333.20351,343.67828 c -1.52668,-0.0228 -3.04812,0.89066 -4.14175,1.95609 -1.38852,1.35271 -2.50515,3.25684 -2.62002,5.19192 -0.10332,1.73997 0.40613,3.85063 1.78701,4.91429 1.30311,1.0037 3.41125,1.11492 4.91426,0.44674 2.04116,-0.9074 3.40307,-3.21436 4.02076,-5.36103 0.49586,-1.72326 0.55347,-3.87268 -0.44674,-5.36098 -0.7329,-1.09057 -2.19974,-1.7678 -3.51352,-1.78703 z"
       id="path916-3" />
    <path
       id="path933"
       d="m 339.84429,380.31187 c 0,0 5.34012,-1.29464 8.04152,-1.78698 2.07187,-0.37763 4.15381,-0.74424 6.25451,-0.89351 1.93104,-0.13739 5.80776,0 5.80776,0 0,0 -0.6545,4.08701 -1.44883,5.97683 -0.51844,1.23339 -1.19346,2.4448 -2.12516,3.40494 -1.12178,1.15596 -2.47911,2.21371 -4.02076,2.68051 -1.9954,0.60415 -4.29104,0.70089 -6.25453,0 -1.99332,-0.71155 -3.78103,-2.23321 -4.91427,-4.02076 -0.98627,-1.55569 -1.34024,-5.36103 -1.34024,-5.36103 z"
       style="fill:none;stroke:#000000;stroke-width:3.23472;stroke-linecap:butt;stroke-linejoin:miter;stroke-miterlimit:4;stroke-dasharray:none;stroke-opacity:1" />
    <path
       id="path945"
       d="m 349.87135,392.74538 c -12.34551,-0.97284 -21.74635,-3.73329 -25.00766,-7.34319 -3.37196,-3.73238 -5.39662,-9.55691 -5.02292,-14.44988 0.31121,-4.07402 1.78571,-9.79076 3.53365,-13.69997 l 1.38535,-3.09826 0.8088,1.32998 c 1.05263,1.73088 3.15307,2.78809 5.53926,2.78809 3.56702,0 6.37671,-2.43082 7.63241,-6.60319 1.39968,-4.6508 0.30561,-7.78381 -3.03188,-8.68226 -4.01197,-1.08004 -6.20459,1.70648 -3.58064,-0.79136 1.82632,-1.73852 2.42035,-5.48269 4.15475,-5.85465 2.81278,-0.60322 7.15027,-1.00826 9.31428,-2.96329 l 1.70316,-1.53872 0.29422,1.89903 c 0.96782,6.24745 6.93102,11.8121 11.58113,10.80711 3.43365,-0.74208 7.48899,-3.49308 9.7495,-6.61362 0.99988,-1.38027 1.1047,-3.2543 1.1047,-2.54275 0,1.40905 6.02949,8.39879 7.99585,8.76767 3.93092,0.73747 8.93606,-1.41415 12.73386,-5.47396 1.46872,-1.57008 4.01067,-7.10534 4.01067,-7.38627 0,-0.28098 -0.63614,4.33251 0.22448,5.33791 1.63331,1.90817 5.50428,4.14061 7.17968,4.14061 0.74866,0 1.20667,0.54056 1.97882,2.33544 0.86546,2.01186 0.97266,2.86302 0.77347,6.14286 -0.26537,4.36965 -0.95649,6.64211 -3.7614,12.36772 -1.54393,3.15161 -2.05264,4.74411 -2.21202,6.92464 -0.4579,6.26506 -1.303,7.64247 -7.07684,11.53438 -3.89689,2.62671 -5.66794,3.53232 -11.28292,5.76931 -12.88902,5.13496 -23.33088,7.47902 -30.72171,6.89662 z m 4.57974,-2.01277 c 2.97988,-1.40551 4.41085,-3.53004 6.20826,-9.21728 0.87798,-2.77808 1.4601,-5.18729 1.29358,-5.35382 -0.16648,-0.16648 -1.74681,-0.37199 -3.51168,-0.45649 -3.50721,-0.168 -9.82688,0.67318 -16.27635,2.16647 -4.02627,0.93225 -4.13245,0.98964 -4.13245,2.23505 0,4.17515 1.62515,7.49502 4.81865,9.84355 3.16626,2.32849 7.67719,2.6328 11.59999,0.78252 z m 26.91532,-23.8228 c 2.86809,-1.48312 4.91515,-5.70241 4.91515,-10.13071 0,-4.14277 -1.83383,-6.61891 -5.39704,-7.28737 -3.2954,-0.61823 -7.85353,2.68219 -8.89827,6.44302 -1.18008,4.24802 -0.0528,9.29408 2.41232,10.79722 1.68827,1.02951 5.15005,1.11786 6.96784,0.17799 z"
       style="fill:#000000;fill-opacity:1;stroke:#000000;stroke-width:1.56363;stroke-linecap:round;stroke-linejoin:round;stroke-miterlimit:4;stroke-dasharray:none;stroke-opacity:1" />
    <path
       id="path947"
       d="m 321.28027,412.91809 c -2.00571,-1.08633 -2.81947,-1.95492 -3.35681,-3.58309 -0.68771,-2.08381 0.16084,-3.72383 4.10952,-7.94161 l 3.26706,-3.48978 2.51537,1.37233 c 1.38344,0.75478 4.08119,1.77281 5.99496,2.26227 1.91377,0.48946 3.52197,0.93972 3.5738,1.00058 0.0517,0.061 0.18211,1.85586 0.28955,3.98889 l 0.19535,3.8782 -3.60397,1.44715 c -4.44421,1.78449 -10.70784,2.29826 -12.98478,1.06506 z"
       style="fill:#000000;fill-opacity:1;stroke:#000000;stroke-width:1.56363;stroke-linecap:round;stroke-linejoin:round;stroke-miterlimit:4;stroke-dasharray:none;stroke-opacity:1" />
    <path
       id="path949"
       d="m 368.34193,455.92228 c -1.45275,-1.22803 -2.16417,-2.58165 -2.16417,-4.11767 0,-1.41516 2.67713,-8.46189 4.33573,-11.41242 1.14069,-2.02927 1.347,-2.17306 3.81319,-2.65829 1.43399,-0.2821 3.37891,-0.78519 4.32205,-1.11794 l 1.71484,-0.60502 0.19926,3.44017 c 0.21683,3.74685 1.76181,7.37928 3.83068,9.00662 1.34767,1.0601 1.00288,1.7504 -2.45148,4.90769 -3.30404,3.01992 -4.67101,3.56479 -8.93686,3.56206 -2.95105,-10e-4 -3.65603,-0.15367 -4.66314,-1.0052 z"
       style="fill:#000000;fill-opacity:1;stroke:#000000;stroke-width:1.56363;stroke-linecap:round;stroke-linejoin:round;stroke-miterlimit:4;stroke-dasharray:none;stroke-opacity:1" />
    <path
       id="path951"
       d="m 580.22083,299.22102 c -1.69908,-2.11428 -5.17415,-4.20903 -8.17792,-4.92965 l -2.14591,-0.51477 1.23163,-1.1841 c 0.67741,-0.65125 1.73058,-2.28981 2.34039,-3.64124 0.60982,-1.35142 1.28759,-2.58553 1.50619,-2.7425 0.83155,-0.59714 8.22171,-1.81909 10.92007,-1.80561 3.43015,0.0174 4.6474,0.72173 5.3609,3.10316 1.07609,3.59162 0.81258,4.42333 -2.78203,8.78189 -1.73514,2.10387 -5.2329,4.72534 -6.30491,4.72534 -0.27935,0 -1.15612,-0.80662 -1.94841,-1.79252 z"
       style="fill:#000000;fill-opacity:1;stroke:#000000;stroke-width:1.56363;stroke-linecap:round;stroke-linejoin:round;stroke-miterlimit:4;stroke-dasharray:none;stroke-opacity:1" />
    <path
       id="path953"
       d="m 581.69274,358.13373 c -0.46806,-0.52659 -1.41012,-1.30219 -2.09338,-1.72348 l -1.24231,-0.76602 1.63135,-1.24429 c 0.96972,-0.73966 2.10348,-2.26021 2.7954,-3.74922 0.99717,-2.14572 1.18827,-3.25474 1.33276,-7.73378 l 0.16865,-5.22889 1.40547,0.23783 c 7.26286,1.22898 12.8557,3.18284 14.69635,5.13418 1.53639,1.62882 1.69756,4.75781 0.3582,6.95443 -2.07927,3.41005 -8.52396,7.18751 -14.35537,8.4142 -3.93704,0.82819 -3.68476,0.84401 -4.69714,-0.29496 z"
       style="fill:#000000;fill-opacity:1;stroke:#000000;stroke-width:1.56363;stroke-linecap:round;stroke-linejoin:round;stroke-miterlimit:4;stroke-dasharray:none;stroke-opacity:1" />
  </g>
</svg>
