<?xml version="1.0" encoding="UTF-8" standalone="no"?>
<svg
   xmlns:dc="http://purl.org/dc/elements/1.1/"
   xmlns:cc="http://creativecommons.org/ns#"
   xmlns:rdf="http://www.w3.org/1999/02/22-rdf-syntax-ns#"
   xmlns:svg="http://www.w3.org/2000/svg"
   xmlns="http://www.w3.org/2000/svg"
   xmlns:xlink="http://www.w3.org/1999/xlink"
   xmlns:sodipodi="http://sodipodi.sourceforge.net/DTD/sodipodi-0.dtd"
   xmlns:inkscape="http://www.inkscape.org/namespaces/inkscape"
   inkscape:version="1.0 (1.0+r73+1)"
   sodipodi:docname="ClusterSheep.svg"
   viewBox="0 0 2000 615.80299"
   height="615.80298"
   width="2000"
   id="svg10"
   version="1.1">
  <sodipodi:namedview
     inkscape:current-layer="svg10"
     inkscape:window-maximized="1"
     inkscape:window-y="0"
     inkscape:window-x="0"
     inkscape:cy="100.83646"
     inkscape:cx="595.4233"
     inkscape:zoom="0.40016573"
     showgrid="false"
     id="namedview57"
     inkscape:window-height="1016"
     inkscape:window-width="1920"
     inkscape:pageshadow="2"
     inkscape:pageopacity="0"
     guidetolerance="10"
     gridtolerance="10"
     objecttolerance="10"
     borderopacity="1"
     bordercolor="#666666"
     pagecolor="#ffffff" />
  <metadata
     id="metadata16">
    <rdf:RDF>
      <cc:Work
         rdf:about="">
        <dc:format>image/svg+xml</dc:format>
        <dc:type
           rdf:resource="http://purl.org/dc/dcmitype/StillImage" />
        <dc:title></dc:title>
      </cc:Work>
    </rdf:RDF>
  </metadata>
  <g
     transform="matrix(3.4350224,0,0,3.4350224,-386.70328,-782.38008)"
     id="layer1">
    <path
       id="path860"
       d="m 358.92789,270.25951 c 0,0 0.82076,1.60267 1.02912,2.46989 0.20897,0.8698 0.39106,1.80058 0.20582,2.67573 -0.20976,0.99103 -0.66554,2.02368 -1.44077,2.67572 -0.83018,0.69826 -2.0053,1.10602 -3.08736,1.02912 -1.37724,-0.0978 -2.87928,-0.7457 -3.70485,-1.85242 -0.70816,-0.94933 -0.61746,-3.49901 -0.61746,-3.49901 0,0 -0.97326,2.76717 -1.85243,3.91066 -0.71214,0.92623 -1.62359,1.75605 -2.67572,2.26407 -0.9451,0.45633 -2.07196,0.88283 -3.08737,0.61747 -1.22396,-0.31986 -2.27277,-1.36093 -2.88154,-2.46989 -0.4669,-0.85054 -0.41166,-2.88154 -0.41166,-2.88154 0,0 -1.19756,2.32625 -2.05823,3.29319 -0.58417,0.65627 -1.26022,1.27902 -2.05824,1.64659 -0.74587,0.34354 -1.61378,0.61828 -2.41988,0.46168 -0.90072,-0.175 -1.70146,-0.8077 -2.3141,-1.4908 -0.51213,-0.57105 -0.81187,-1.32259 -1.02912,-2.05824 -0.35191,-1.19167 -0.41165,-3.70484 -0.41165,-3.70484 0,0 -1.7901,2.5308 -3.08736,3.29319 -0.73164,0.42996 -1.62218,0.65695 -2.46989,0.61747 -0.8266,-0.0385 -1.63557,-0.39232 -2.34197,-0.8233 -0.5229,-0.31904 -1.00225,-0.74853 -1.33501,-1.26282 -0.46828,-0.72374 -0.78656,-1.58241 -0.85116,-2.44203 -0.0838,-1.11371 0.0939,-2.30664 0.61747,-3.29318 0.60544,-1.14082 1.60657,-2.13222 2.75362,-2.72575 0.96659,-0.50014 3.21529,-0.56745 3.21529,-0.56745 0,0 -1.77984,-0.62576 -2.46989,-1.23494 -0.7418,-0.65484 -1.38955,-1.51438 -1.6466,-2.4699 -0.28572,-1.06211 -0.0961,-2.23556 0.20583,-3.29319 0.174,-0.60951 0.50352,-1.18087 0.90119,-1.67446 0.47932,-0.59494 1.05154,-1.16153 1.74094,-1.49081 0.89173,-0.4259 1.94911,-0.53696 2.91512,-0.53957 0.96602,-0.002 3.49903,1.02913 3.49903,1.02913 0,0 -2.07142,-1.26413 -2.67573,-2.26407 -0.65432,-1.08271 -0.84842,-2.44001 -0.8233,-3.70484 0.0166,-0.83416 0.21265,-1.7031 0.63963,-2.41988 0.52502,-0.8813 1.34159,-1.61661 2.24192,-2.10827 0.99308,-0.5423 2.16258,-0.77814 3.29319,-0.82329 0.83399,-0.0333 1.69593,0.0992 2.4699,0.41164 1.23525,0.49872 3.29319,2.26407 3.29319,2.26407 0,0 -1.34365,-2.94717 -1.44078,-4.52813 -0.0684,-1.11476 0.12566,-2.29045 0.61748,-3.29319 0.3638,-0.74174 0.93755,-1.42841 1.6466,-1.85242 1.27111,-0.76013 2.84216,-1.08032 4.32231,-1.02912 1.1494,0.0397 2.31781,0.41975 3.29319,1.02912 1.44061,0.90003 3.49901,3.70484 3.49901,3.70484 0,0 -0.59856,-3.06914 -0.20582,-4.52814 0.29682,-1.10262 1.00272,-2.11875 1.85242,-2.88154 0.5708,-0.51242 1.32501,-0.80384 2.05825,-1.02912 0.99243,-0.30495 2.05009,-0.45635 3.08737,-0.41165 0.63194,0.0272 1.29793,0.10726 1.85242,0.41165 0.68042,0.37352 1.26885,0.96849 1.64659,1.64658 0.5831,1.04675 0.8233,3.49903 0.8233,3.49903 0,0 -0.4374,-3.08353 0,-4.52814 0.35842,-1.18378 1.131,-2.26882 2.05824,-3.08738 1.0351,-0.91375 2.34196,-1.63125 3.70484,-1.85242 0.95774,-0.15542 1.9638,0.0968 2.88154,0.41165 0.5232,0.17952 0.975,0.52496 1.44078,0.8233 0.49697,0.31834 1.00063,0.63594 1.44077,1.02913 0.68836,0.61493 1.85242,2.05825 1.85242,2.05825 l 1.02913,1.85242 0.41165,2.26406 v -2.88154 c 0,0 0.43484,-1.56123 0.82329,-2.26408 0.3784,-0.68464 0.89704,-1.29003 1.44077,-1.85242 0.37246,-0.38522 0.78246,-0.74208 1.23495,-1.02912 0.56685,-0.35956 1.16945,-0.70829 1.82556,-0.85015 0.88055,-0.1904 1.83161,-0.20346 2.70258,0.0269 0.68289,0.18058 1.28849,0.60376 1.85242,1.02912 0.54222,0.409 0.99954,0.92442 1.44077,1.44077 0.60621,0.70946 1.64659,2.26408 1.64659,2.26408 l -0.20582,2.46989 0.20582,-2.46989 c 0,0 1.50284,-1.70535 2.4699,-2.26408 1.18365,-0.68387 2.55962,-1.02668 3.91067,-1.23495 1.01711,-0.15677 2.08896,-0.24959 3.08736,0 1.13151,0.28289 2.21437,0.87315 3.08737,1.6466 0.62684,0.55537 1.06431,1.31016 1.44077,2.05824 0.39012,0.77522 0.8233,2.46991 0.8233,2.46991 v 4.11648 l 2.46989,-2.67571 c 0,0 1.33271,-0.78019 2.05825,-1.02913 0.66179,-0.22707 1.35884,-0.39223 2.05824,-0.41164 0.96989,-0.0269 1.94909,0.14344 2.88155,0.41164 0.64938,0.18677 1.28555,0.45552 1.85241,0.8233 0.77434,0.50237 1.51059,1.10942 2.05825,1.85242 0.58285,0.79072 1.06427,1.70833 1.23495,2.67572 0.14353,0.81359 -0.20582,2.46989 -0.20582,2.46989 l -0.61748,2.46989 0.61748,-2.46989 c 0,0 2.60694,-0.27111 3.91066,-0.20582 0.90127,0.0451 1.82085,0.12265 2.67572,0.41165 0.81438,0.2753 1.55899,0.74311 2.26406,1.23494 0.59817,0.41725 1.14601,0.91038 1.6466,1.44077 0.53693,0.56889 1.08586,1.15532 1.44077,1.85243 0.44932,0.88254 0.58996,1.89221 0.8233,2.85467 0.16691,0.68851 0.48589,1.38056 0.41165,2.08511 -0.10952,1.03926 -1.23495,2.88155 -1.23495,2.88155 l -2.26407,1.64659 3.29319,0.8233 c 0,0 1.62332,0.66185 2.26408,1.23495 0.62421,0.55829 1.07302,1.30583 1.44076,2.05824 0.40977,0.83839 0.71533,1.74882 0.82331,2.67572 0.11934,1.02448 0.11134,2.10594 -0.20584,3.08736 -0.39808,1.23178 -1.19333,2.33005 -2.05823,3.29319 -0.81616,0.90886 -2.88155,2.26408 -2.88155,2.26408 l -2.05825,-0.20582 c 0,0 3.19236,0.42047 4.52814,1.23493 0.95359,0.58144 1.75859,1.47398 2.26407,2.4699 0.31667,0.62391 0.36319,1.36026 0.41166,2.05825 0.0809,1.16555 0.0959,2.37029 -0.20584,3.49902 -0.19807,0.74104 -0.5055,1.49771 -1.02912,2.05824 -0.92372,0.98885 -3.49901,2.05824 -3.49901,2.05824 0,0 1.85913,0.0276 2.67571,0.41166 0.7476,0.35162 1.32903,1.00738 1.85242,1.6466 0.60386,0.73744 1.16344,1.558 1.44077,2.46989 0.32005,1.05229 0.38778,2.20847 0.20583,3.29319 -0.14754,0.87962 -0.53283,1.72882 -1.02911,2.46989 -0.37794,0.56433 -1.44078,1.44077 -1.44078,1.44077 l -2.67571,1.02913 v 0 h 1.02911 c 0,0 1.45534,1.22499 1.85242,2.05824 0.56773,1.19134 0.87647,2.61663 0.61747,3.91066 -0.20551,1.02691 -0.82158,2.03066 -1.64659,2.67573 -1.2478,0.97563 -4.52814,1.44077 -4.52814,1.44077 l -2.67571,-1.85243 2.05824,1.44078 c 0,0 0.62129,2.75351 0.41165,4.11648 -0.15886,1.03286 -0.56,2.08375 -1.23495,2.88155 -0.7375,0.87175 -1.76589,1.60912 -2.88154,1.85242 -0.94799,0.20674 -1.99104,-0.0264 -2.88154,-0.41165 -0.80638,-0.34887 -2.05824,-1.64659 -2.05824,-1.64659 l -1.6466,-2.05825 1.85242,2.88154 c 0,0 -0.0431,2.46327 -0.61748,3.49902 -0.44764,0.80722 -1.25067,1.40539 -2.05824,1.85242 -0.87398,0.48379 -1.88381,0.77415 -2.88154,0.8233 -0.76614,0.0377 -2.26408,-0.41165 -2.26408,-0.41165 l -1.85242,-1.44077 -1.23494,-2.05825 c 0,0 1.2373,2.71751 1.02912,4.11649 -0.17664,1.18708 -1.00857,2.23398 -1.85241,3.08737 -0.73636,0.74467 -1.66806,1.36139 -2.67573,1.6466 -0.79218,0.22422 -1.64911,0.0644 -2.46989,0 -1.31566,-0.1032 -2.75523,0.0202 -3.91066,-0.61748 -0.63854,-0.35239 -1.44078,-1.6466 -1.44078,-1.6466 l -0.41165,-2.67571 0.41165,2.67571 c 0,0 -0.7552,1.74304 -2.67571,4.1165 -0.53383,0.65971 -2.27196,1.14868 -3.49903,1.44077 -0.87022,0.20715 -1.79318,0.35192 -2.67571,0.20583 -1.03097,-0.17068 -1.96841,-0.7268 -2.88154,-1.23496 -0.73179,-0.40722 -2.05825,-1.44077 -2.05825,-1.44077 v 0 l -0.41165,-3.70484 0.41165,3.70484 c 0,0 -1.40821,1.50347 -2.26407,2.05824 -1.00544,0.65174 -2.12919,1.15657 -3.29319,1.44078 -1.00197,0.24466 -2.06006,0.29772 -3.08736,0.20583 -1.12702,-0.10079 -3.29319,-0.8233 -3.29319,-0.8233 l -1.85243,-1.44078 -0.8233,-3.08737 0.8233,3.08737 c 0,0 -1.48956,1.72898 -2.46988,2.26408 -1.18317,0.6458 -2.57388,0.85617 -3.91068,1.02912 -1.1567,0.14965 -2.39056,0.36287 -3.49901,0 -1.21285,-0.39706 -2.31238,-1.25014 -3.08737,-2.26407 -0.5803,-0.75923 -1.02912,-2.67572 -1.02912,-2.67572 l -0.41166,-3.08736 c 0,0 -0.87715,2.08667 -1.64658,2.88154 -0.7284,0.75246 -1.67687,1.3319 -2.67573,1.6466 -1.11436,0.35108 -2.34074,0.35901 -3.49902,0.20581 -0.64525,-0.0853 -1.28767,-0.2939 -1.85242,-0.61746 -0.6328,-0.36257 -1.20977,-0.85675 -1.64659,-1.44078 -0.58835,-0.78663 -1.02421,-1.71627 -1.23495,-2.67571 -0.19133,-0.87115 0,-2.67573 0,-2.67573 l 1.02913,-2.05824 -2.26407,1.85242 c 0,0 -2.03131,0.68491 -3.08737,0.82329 -0.88435,0.1159 -1.78815,0.0879 -2.67572,0 -1.0444,-0.10341 -2.12047,-0.20935 -3.08736,-0.61747 -0.7966,-0.33622 -1.54451,-0.83962 -2.13883,-1.46763 -0.59988,-0.63389 -1.07301,-1.41307 -1.36019,-2.23721 -0.36404,-1.04466 -0.46379,-2.18814 -0.41166,-3.29319 0.0299,-0.63183 0.0953,-1.30468 0.41166,-1.85242 0.55859,-0.96713 2.46989,-2.26408 2.46989,-2.26408"
       style="fill:none;fill-opacity:1;stroke:#000000;stroke-width:1.49028;stroke-linecap:round;stroke-linejoin:round;stroke-miterlimit:4;stroke-dasharray:none;stroke-opacity:1" />
    <path
       id="path864"
       d="m 331.55322,316.15838 -3.70482,-1.6466 -1.64661,-2.26406 -0.41165,-1.85243 0.20583,-2.88154 -1.6466,0.20582 -2.67572,-1.23495 -2.26406,-1.64658 -0.20583,-1.85243 v -1.23495"
       style="fill:none;stroke:#000000;stroke-width:0.425793px;stroke-linecap:butt;stroke-linejoin:miter;stroke-opacity:1" />
    <path
       id="path866"
       d="M 334.43477,312.04188 Z"
       style="fill:none;stroke:#000000;stroke-width:0.425793px;stroke-linecap:butt;stroke-linejoin:miter;stroke-opacity:1" />
    <path
       id="path868"
       d="M 334.43477,312.04188 Z"
       style="fill:none;stroke:#000000;stroke-width:0.425793px;stroke-linecap:butt;stroke-linejoin:miter;stroke-opacity:1" />
    <path
       id="path870"
       d="m 331.55322,316.15838 c 0,0 -2.65409,-0.79672 -3.70482,-1.6466 -0.72555,-0.58685 -1.26292,-1.41343 -1.64661,-2.26406 -0.26008,-0.5766 -0.36508,-1.22161 -0.41165,-1.85243 -0.0709,-0.96035 0.20583,-2.88154 0.20583,-2.88154 0,0 -2.97688,-0.41001 -4.32232,-1.02913 -0.84772,-0.39008 -1.81318,-0.82958 -2.26406,-1.64658 -0.49836,-0.90303 -0.20583,-3.08738 -0.20583,-3.08738 v 0"
       style="fill:none;stroke:#000000;stroke-width:1.49028;stroke-linecap:butt;stroke-linejoin:miter;stroke-miterlimit:4;stroke-dasharray:none;stroke-opacity:1" />
    <path
       id="path872"
       d="m 324.5552,277.25755 c 0,0 -1.45988,1.00323 -2.05825,1.6466 -0.90722,0.97545 -1.56245,2.16079 -2.26407,3.2932 -0.74406,1.2009 -1.44521,2.43203 -2.05824,3.70482 -0.54734,1.13641 -1.10889,2.28212 -1.44077,3.49903 -0.5106,1.87215 -0.99757,3.83039 -0.8233,5.76308 0.13639,1.51258 0.70769,2.99225 1.44077,4.32231 0.4707,0.85399 1.07541,1.67493 1.85242,2.26407 0.95477,0.72393 2.157,1.06037 3.29319,1.44077 1.40442,0.47022 2.8577,0.80914 4.32231,1.02913 2.10764,0.31656 4.25304,0.53805 6.38056,0.41164 1.8806,-0.11173 3.73306,-0.55859 5.55726,-1.02912 1.47057,-0.37931 2.89627,-0.9184 4.32232,-1.44077 1.3877,-0.50832 2.77764,-1.02083 4.11649,-1.64659 0.9177,-0.42893 1.8456,-0.86023 2.67572,-1.44077 1.35403,-0.94695 2.91773,-1.84041 3.70483,-3.29319 0.66098,-1.21996 0.21491,-2.78867 0.61749,-4.1165 0.37398,-1.23358 1.18145,-2.29682 1.64659,-3.49901 0.33673,-0.8703 0.65899,-1.75713 0.8233,-2.67572 0.21777,-1.21754 0.43753,-2.48989 0.20582,-3.70483 -0.18402,-0.96494 -1.23494,-2.67573 -1.23494,-2.67573"
       style="fill:none;fill-opacity:1;stroke:#000000;stroke-width:1.49028;stroke-linecap:butt;stroke-linejoin:miter;stroke-miterlimit:4;stroke-dasharray:none;stroke-opacity:1" />
    <path
       id="path874"
       d="m 360.16283,275.40513 c 0,0 2.35797,0.90318 3.49902,1.44077 1.05511,0.4971 2.11327,1.00513 3.08737,1.6466 0.73379,0.48322 1.45015,1.01241 2.05824,1.64659 0.88325,0.92115 1.70264,1.94132 2.26407,3.08737 0.43947,0.89708 0.64688,1.89829 0.82329,2.88155 0.15799,0.88048 0.20583,1.78117 0.20583,2.67571 0,0.89454 0.0134,1.80844 -0.20583,2.67572 -0.33107,1.31024 -0.90391,2.57577 -1.64659,3.70484 -0.66704,1.01408 -1.51765,1.92303 -2.46989,2.67572 -0.98808,0.78102 -2.10352,1.43894 -3.29319,1.85242 -1.24656,0.43325 -2.59225,0.67576 -3.91067,0.61747 -1.1304,-0.05 -2.2843,-0.31098 -3.29319,-0.8233 -0.95556,-0.48521 -1.97368,-1.10835 -2.46989,-2.05824 -0.7334,-1.40392 -0.65139,-3.16827 -0.41166,-4.73396 0.19091,-1.24682 0.74111,-2.44951 1.44078,-3.49901 0.80731,-1.21098 1.83788,-2.34107 3.08737,-3.08737 0.61494,-0.36731 1.34583,-0.54301 2.05824,-0.61748 0.82168,-0.0859 1.73241,-0.16652 2.46989,0.20582 0.65105,0.32871 1.15358,0.97621 1.44078,1.64661 0.2984,0.69657 0.31526,1.51421 0.20582,2.26406 -0.10672,0.73118 -0.37381,1.47174 -0.8233,2.05825 -0.41733,0.54455 -0.99572,1.01799 -1.64659,1.23494 -0.65088,0.21696 -2.05825,0 -2.05825,0"
       style="fill:none;stroke:#000000;stroke-width:1.49028;stroke-linecap:round;stroke-linejoin:round;stroke-miterlimit:4;stroke-dasharray:none;stroke-opacity:1" />
    <path
       id="path876"
       d="m 319.40959,304.83804 c 0,0 -2.11995,2.14071 -3.08737,3.29318 -0.44111,0.52549 -1.01799,0.99572 -1.23495,1.6466 -0.21696,0.65088 -0.24381,1.41695 0,2.05824 0.2936,0.77223 0.93279,1.43647 1.6466,1.85242 0.84873,0.49459 1.8993,0.60483 2.88154,0.61748 1.11676,0.0144 2.22584,-0.28862 3.29319,-0.61748 1.14507,-0.35281 3.29319,-1.44076 3.29319,-1.44076"
       style="fill:none;stroke:#000000;stroke-width:1.49028;stroke-linecap:butt;stroke-linejoin:miter;stroke-miterlimit:4;stroke-dasharray:none;stroke-opacity:1" />
    <path
       id="path878"
       d="m 339.99203,324.18554 c 0,0 -1.22078,2.14212 -1.64659,3.29318 -0.49071,1.32654 -1.2989,2.72807 -1.02912,4.1165 0.17798,0.91604 0.85279,1.77347 1.64659,2.26407 0.70999,0.4388 1.63524,0.41165 2.4699,0.41165 0.83465,0 1.70253,-0.0833 2.46989,-0.41165 0.94613,-0.40486 2.46989,-1.85242 2.46989,-1.85242 l 1.6466,-1.85242"
       style="fill:none;stroke:#000000;stroke-width:1.49028;stroke-linecap:round;stroke-linejoin:round;stroke-miterlimit:4;stroke-dasharray:none;stroke-opacity:1" />
    <ellipse
       ry="6.2013927"
       rx="6.4014378"
       cy="283.23218"
       cx="401.53351"
       id="path880"
       style="fill:#000000;fill-opacity:1;stroke:#000000;stroke-width:1.44843;stroke-linecap:round;stroke-linejoin:round;stroke-miterlimit:4;stroke-dasharray:none;stroke-opacity:1" />
    <ellipse
       ry="3.3137748"
       rx="3.4141924"
       cy="307.31042"
       cx="389.28705"
       id="path882"
       style="fill:#000000;fill-opacity:1;stroke:#000000;stroke-width:1.45415;stroke-linecap:round;stroke-linejoin:round;stroke-miterlimit:4;stroke-dasharray:none;stroke-opacity:1" />
    <ellipse
       ry="3.2112706"
       rx="3.3116226"
       cy="298.97446"
       cx="407.914"
       id="path884"
       style="fill:#000000;fill-opacity:1;stroke:#000000;stroke-width:1.4532;stroke-linecap:round;stroke-linejoin:round;stroke-miterlimit:4;stroke-dasharray:none;stroke-opacity:1" />
    <ellipse
       ry="3.893851"
       rx="3.9990907"
       cy="267.37799"
       cx="417.69315"
       id="path886"
       style="fill:#000000;fill-opacity:1;stroke:#000000;stroke-width:1.52398;stroke-linecap:round;stroke-linejoin:round;stroke-miterlimit:4;stroke-dasharray:none;stroke-opacity:1" />
    <ellipse
       ry="2.9042616"
       rx="3.0044084"
       cy="249.47392"
       cx="395.04999"
       id="path888"
       style="fill:#000000;fill-opacity:1;stroke:#000000;stroke-width:1.45023;stroke-linecap:round;stroke-linejoin:round;stroke-miterlimit:4;stroke-dasharray:none;stroke-opacity:1" />
    <ellipse
       ry="3.4609907"
       rx="3.6773024"
       cy="265.31967"
       cx="385.90131"
       id="path890"
       style="fill:#000000;fill-opacity:1;stroke:#000000;stroke-width:1.56622;stroke-linecap:round;stroke-linejoin:round;stroke-miterlimit:4;stroke-dasharray:none;stroke-opacity:1" />
    <path
       id="path892"
       d="m 389.18408,267.99545 8.43881,10.49705"
       style="fill:none;stroke:#000000;stroke-width:1.49028;stroke-linecap:butt;stroke-linejoin:miter;stroke-miterlimit:4;stroke-dasharray:none;stroke-opacity:1" />
    <path
       id="path894"
       d="m 393.91804,251.32366 -6.58638,11.11452"
       style="fill:none;stroke:#000000;stroke-width:1.49028;stroke-linecap:butt;stroke-linejoin:miter;stroke-miterlimit:4;stroke-dasharray:none;stroke-opacity:1" />
    <path
       id="path896"
       d="m 395.35881,252.97025 5.96892,24.08148"
       style="fill:none;stroke:#000000;stroke-width:1.49028;stroke-linecap:butt;stroke-linejoin:miter;stroke-miterlimit:4;stroke-dasharray:none;stroke-opacity:1" />
    <path
       id="path898"
       d="m 398.24036,251.11783 17.7009,15.23102"
       style="fill:none;stroke:#000000;stroke-width:1.49028;stroke-linecap:butt;stroke-linejoin:miter;stroke-miterlimit:4;stroke-dasharray:none;stroke-opacity:1" />
    <path
       id="path900"
       d="m 419.44028,268.40709 -10.70287,28.81544"
       style="fill:none;stroke:#000000;stroke-width:1.49028;stroke-linecap:butt;stroke-linejoin:miter;stroke-miterlimit:4;stroke-dasharray:none;stroke-opacity:1" />
    <path
       id="path902"
       d="m 404.62092,288.98954 2.05825,6.79222"
       style="fill:none;stroke:#000000;stroke-width:1.49028;stroke-linecap:butt;stroke-linejoin:miter;stroke-miterlimit:4;stroke-dasharray:none;stroke-opacity:1" />
    <path
       id="path904"
       d="m 406.06169,278.90415 9.26211,-8.23299"
       style="fill:none;stroke:#000000;stroke-width:1.49028;stroke-linecap:butt;stroke-linejoin:miter;stroke-miterlimit:4;stroke-dasharray:none;stroke-opacity:1" />
    <path
       id="path906"
       d="m 389.38991,265.9372 24.08146,1.23495"
       style="fill:none;stroke:#000000;stroke-width:1.49028;stroke-linecap:butt;stroke-linejoin:miter;stroke-miterlimit:4;stroke-dasharray:none;stroke-opacity:1" />
    <path
       id="path908"
       d="m 397.82872,288.78372 -7.20387,15.23101"
       style="fill:none;stroke:#000000;stroke-width:1.49028;stroke-linecap:butt;stroke-linejoin:miter;stroke-miterlimit:4;stroke-dasharray:none;stroke-opacity:1" />
    <path
       id="path910"
       d="m 405.03257,300.72154 -12.34947,5.14561"
       style="fill:none;stroke:#000000;stroke-width:1.49028;stroke-linecap:butt;stroke-linejoin:miter;stroke-miterlimit:4;stroke-dasharray:none;stroke-opacity:1" />
    <path
       id="path912"
       d="m 433.43635,253.99939 c 0,0 2.45355,-0.63711 3.70485,-0.82331 0.88479,-0.13166 1.78632,-0.30166 2.67571,-0.20583 0.71217,0.0767 1.51006,0.15642 2.05824,0.61749 0.46963,0.39499 0.65274,1.05712 0.8233,1.64659 0.19165,0.66233 0.35655,1.38542 0.20583,2.05825 -0.17491,0.78075 -0.74255,1.4276 -1.23495,2.05824 -0.65683,0.84124 -1.37727,1.67018 -2.26407,2.26407 -0.74108,0.49629 -2.4699,1.02912 -2.4699,1.02912"
       style="fill:none;stroke:#000000;stroke-width:1.49028;stroke-linecap:butt;stroke-linejoin:miter;stroke-miterlimit:4;stroke-dasharray:none;stroke-opacity:1" />
    <path
       id="path914"
       d="m 437.34701,277.46338 c 0,0 2.90585,0.28309 4.32232,0.61747 0.84461,0.19938 1.66211,0.50609 2.46989,0.8233 0.77164,0.303 1.6405,0.48286 2.26406,1.02912 0.48687,0.4265 0.87671,1.01755 1.02913,1.64659 0.19456,0.80292 0.12542,1.71306 -0.20582,2.4699 -0.44779,1.02316 -1.38031,1.787 -2.26408,2.4699 -1.04426,0.80691 -2.25804,1.40336 -3.499,1.85241 -1.25266,0.45328 -3.91068,0.82331 -3.91068,0.82331"
       style="fill:none;stroke:#000000;stroke-width:1.49028;stroke-linecap:butt;stroke-linejoin:miter;stroke-miterlimit:4;stroke-dasharray:none;stroke-opacity:1" />
    <path
       id="path916"
       d="m 344.10852,284.66723 c -0.96377,0.14824 -1.77524,1.0087 -2.26407,1.85243 -0.41841,0.7222 -0.50135,1.64007 -0.41164,2.46988 0.0795,0.73466 0.2308,1.61668 0.82329,2.05825 0.60762,0.45285 1.57161,0.51366 2.26407,0.20583 0.94039,-0.41805 1.55761,-1.4839 1.85242,-2.4699 0.31509,-1.05377 0.43892,-2.40211 -0.20582,-3.29319 -0.43317,-0.59865 -1.3279,-0.93563 -2.05825,-0.8233 z"
       style="fill:none;stroke:#000000;stroke-width:1.49028;stroke-linecap:butt;stroke-linejoin:miter;stroke-miterlimit:4;stroke-dasharray:none;stroke-opacity:1" />
    <path
       style="fill:none;stroke:#000000;stroke-width:1.49028;stroke-linecap:butt;stroke-linejoin:miter;stroke-miterlimit:4;stroke-dasharray:none;stroke-opacity:1"
       d="m 322.93647,281.16821 c -0.70336,-0.0105 -1.40431,0.41034 -1.90816,0.9012 -0.63971,0.62321 -1.15416,1.50047 -1.20708,2.39199 -0.0476,0.80163 0.18711,1.77404 0.8233,2.26408 0.60036,0.46242 1.57161,0.51366 2.26407,0.20582 0.94039,-0.41805 1.56784,-1.4809 1.85242,-2.4699 0.22845,-0.79393 0.25499,-1.7842 -0.20582,-2.46988 -0.33766,-0.50244 -1.01345,-0.81445 -1.61873,-0.82331 z"
       id="path916-3" />
    <path
       id="path933"
       d="m 325.99597,298.04582 c 0,0 2.46027,-0.59646 3.70484,-0.82329 0.95454,-0.17398 1.91372,-0.34288 2.88154,-0.41165 0.88966,-0.0633 2.67572,0 2.67572,0 0,0 -0.30154,1.88294 -0.6675,2.75361 -0.23885,0.56824 -0.54984,1.12635 -0.97909,1.5687 -0.51682,0.53257 -1.14216,1.01989 -1.85242,1.23495 -0.91931,0.27834 -1.97694,0.32291 -2.88155,0 -0.91835,-0.32782 -1.74197,-1.02887 -2.26407,-1.85242 -0.45439,-0.71673 -0.61747,-2.4699 -0.61747,-2.4699 z"
       style="fill:none;stroke:#000000;stroke-width:1.49028;stroke-linecap:butt;stroke-linejoin:miter;stroke-miterlimit:4;stroke-dasharray:none;stroke-opacity:1" />
    <path
       id="path945"
       d="m 330.61558,303.77411 c -5.68775,-0.4482 -10.01885,-1.71998 -11.52138,-3.38311 -1.55351,-1.71956 -2.4863,-4.403 -2.31413,-6.65726 0.14338,-1.87696 0.8227,-4.51074 1.628,-6.31177 l 0.63825,-1.42741 0.37263,0.61274 c 0.48496,0.79744 1.45266,1.28451 2.55201,1.28451 1.64338,0 2.93784,-1.11991 3.51636,-3.04218 0.64485,-2.14269 0.1408,-3.58611 -1.39683,-4.00004 -1.84837,-0.49759 -2.85854,0.7862 -1.64965,-0.36459 0.84141,-0.80096 1.11509,-2.52595 1.91415,-2.69732 1.29589,-0.27791 3.29423,-0.46452 4.29122,-1.36523 l 0.78467,-0.70891 0.13555,0.87491 c 0.44589,2.87829 3.19322,5.442 5.33559,4.97899 1.58193,-0.34189 3.45028,-1.60931 4.49173,-3.04699 0.46066,-0.63591 0.50895,-1.4993 0.50895,-1.17148 0,0.64917 2.77787,3.86944 3.6838,4.03939 1.81103,0.33976 4.11697,-0.65152 5.86667,-2.52193 0.67666,-0.72336 1.84777,-3.27353 1.84777,-3.40296 0,-0.12945 -0.29308,1.99605 0.10342,2.45925 0.75249,0.87912 2.5359,1.90764 3.30778,1.90764 0.34492,0 0.55593,0.24904 0.91167,1.07597 0.39873,0.92689 0.44812,1.31903 0.35635,2.8301 -0.12226,2.01316 -0.44067,3.06011 -1.73293,5.69798 -0.71131,1.45199 -0.94568,2.18568 -1.01911,3.19028 -0.21096,2.8864 -0.60031,3.52099 -3.2604,5.31405 -1.79535,1.21016 -2.6113,1.62739 -5.1982,2.658 -5.93815,2.36575 -10.74886,3.44569 -14.15392,3.17737 z m 2.10995,-0.92731 c 1.37287,-0.64754 2.03214,-1.62634 2.86023,-4.24653 0.4045,-1.2799 0.67269,-2.38986 0.59597,-2.46658 -0.0767,-0.0767 -0.80478,-0.17138 -1.61788,-0.21031 -1.61582,-0.0774 -4.52738,0.31014 -7.49874,0.99812 -1.85496,0.4295 -1.90388,0.45594 -1.90388,1.02972 0,1.92355 0.74873,3.45306 2.22002,4.53506 1.45874,1.07277 3.53699,1.21297 5.34428,0.36052 z m 12.40026,-10.9755 c 1.32137,-0.68329 2.26448,-2.62718 2.26448,-4.66736 0,-1.90863 -0.84487,-3.04942 -2.48649,-3.35739 -1.51824,-0.28483 -3.61823,1.23572 -4.09956,2.96839 -0.54368,1.95712 -0.0243,4.28191 1.11139,4.97443 0.77781,0.47431 2.3727,0.51501 3.21018,0.082 z"
       style="fill:#000000;fill-opacity:1;stroke:#000000;stroke-width:0.720388;stroke-linecap:round;stroke-linejoin:round;stroke-miterlimit:4;stroke-dasharray:none;stroke-opacity:1" />
    <path
       id="path947"
       d="m 317.44327,313.06796 c -0.92406,-0.50049 -1.29897,-0.90066 -1.54653,-1.65078 -0.31684,-0.96004 0.0741,-1.71562 1.89331,-3.65881 l 1.50518,-1.60779 1.15887,0.63225 c 0.63737,0.34774 1.88026,0.81676 2.76196,1.04226 0.8817,0.2255 1.62262,0.43294 1.6465,0.46098 0.0238,0.0281 0.0839,0.85502 0.1334,1.83774 l 0.09,1.78674 -1.6604,0.66672 c -2.04751,0.82214 -4.93325,1.05884 -5.98227,0.49069 z"
       style="fill:#000000;fill-opacity:1;stroke:#000000;stroke-width:0.720388;stroke-linecap:round;stroke-linejoin:round;stroke-miterlimit:4;stroke-dasharray:none;stroke-opacity:1" />
    <path
       id="path949"
       d="m 339.12523,332.88059 c -0.6693,-0.56577 -0.99706,-1.1894 -0.99706,-1.89707 0,-0.65198 1.23339,-3.89851 1.99753,-5.25786 0.52553,-0.93491 0.62058,-1.00116 1.75679,-1.22471 0.66066,-0.12997 1.55671,-0.36175 1.99123,-0.51505 l 0.79005,-0.27874 0.0918,1.58493 c 0.0999,1.72623 0.81169,3.39974 1.76485,4.14948 0.62089,0.4884 0.46204,0.80643 -1.12943,2.26104 -1.52222,1.39132 -2.152,1.64235 -4.11734,1.64109 -1.35959,-6.1e-4 -1.68438,-0.0708 -2.14837,-0.46311 z"
       style="fill:#000000;fill-opacity:1;stroke:#000000;stroke-width:0.720388;stroke-linecap:round;stroke-linejoin:round;stroke-miterlimit:4;stroke-dasharray:none;stroke-opacity:1" />
    <path
       id="path951"
       d="m 436.7408,260.68613 c -0.78279,-0.97408 -2.3838,-1.93916 -3.76768,-2.27116 l -0.98865,-0.23716 0.56743,-0.54553 c 0.31209,-0.30004 0.7973,-1.05495 1.07825,-1.67757 0.28095,-0.62262 0.59321,-1.19119 0.69392,-1.26351 0.38311,-0.27511 3.78786,-0.83808 5.03103,-0.83187 1.58032,0.008 2.14112,0.33251 2.46984,1.42967 0.49577,1.65471 0.37437,2.03789 -1.28172,4.04594 -0.7994,0.96928 -2.41087,2.17703 -2.90476,2.17703 -0.1287,0 -0.53264,-0.37162 -0.89766,-0.82584 z"
       style="fill:#000000;fill-opacity:1;stroke:#000000;stroke-width:0.720388;stroke-linecap:round;stroke-linejoin:round;stroke-miterlimit:4;stroke-dasharray:none;stroke-opacity:1" />
    <path
       id="path953"
       d="m 437.41893,287.82804 c -0.21564,-0.24261 -0.64966,-0.59994 -0.96445,-0.79403 l -0.57235,-0.35292 0.75159,-0.57326 c 0.44676,-0.34077 0.9691,-1.04131 1.28788,-1.72732 0.45941,-0.98856 0.54745,-1.4995 0.61402,-3.56306 l 0.0777,-2.40902 0.64752,0.10957 c 3.3461,0.56621 5.9228,1.46638 6.77081,2.36539 0.70784,0.75042 0.78209,2.19199 0.16503,3.204 -0.95795,1.57106 -3.92711,3.31139 -6.61372,3.87654 -1.81385,0.38156 -1.69762,0.38885 -2.16404,-0.13589 z"
       style="fill:#000000;fill-opacity:1;stroke:#000000;stroke-width:0.720388;stroke-linecap:round;stroke-linejoin:round;stroke-miterlimit:4;stroke-dasharray:none;stroke-opacity:1" />
    <g
       aria-label="ClusterSheep"
       transform="translate(551.49508,243.49028)"
       id="text1003"
       style="font-style:normal;font-weight:normal;font-size:40px;line-height:1.25;font-family:sans-serif;white-space:pre;fill:#000000;fill-opacity:1;stroke:none">
      <path
         d="m -386.4811,128.81659 v 5.67467 q -1.87734,1.536 -4.30934,3.2 -2.432,1.62133 -5.29066,2.98667 -2.816,1.36533 -6.016,2.21866 -3.2,0.896 -6.61334,0.896 -6.784,0 -12.37333,-2.13333 -5.58933,-2.13333 -9.55733,-6.18667 -3.92534,-4.096 -6.10134,-9.984 -2.176,-5.93066 -2.176,-13.48266 0,-7.296 2.26134,-13.22667 2.304,-5.930666 6.35733,-10.112 4.05333,-4.181333 9.6,-6.442666 5.58933,-2.261334 12.16,-2.261334 2.34667,0 5.16267,0.298667 2.816,0.298667 5.58933,0.810667 2.816,0.469333 5.376,1.024 2.60267,0.554666 4.48,1.024 v 15.616 h -4.992 l -1.664,-8.746667 q -0.0853,-0.64 -0.72533,-1.109333 -0.64,-0.469334 -1.19467,-0.768 -1.408,-0.682667 -2.90133,-1.237334 -1.49334,-0.554666 -3.11467,-0.938666 -1.57867,-0.384 -3.28533,-0.554667 -1.664,-0.213333 -3.49867,-0.213333 -4.352,0 -8.02133,1.536 -3.62667,1.536 -6.22934,4.650666 -2.60266,3.114667 -4.05333,7.808 -1.45067,4.65067 -1.45067,10.96533 0,13.35467 5.888,20.18134 5.888,6.784 17.024,6.784 3.15734,0 5.80267,-0.896 2.64533,-0.896 4.82133,-2.176 2.176,-1.32267 3.88267,-2.73067 1.70667,-1.45067 2.98667,-2.47467 z"
         style="font-style:normal;font-variant:normal;font-weight:normal;font-stretch:normal;font-size:96px;font-family:'Sitka Text';-inkscape-font-specification:'Sitka Text'"
         id="path903" />
      <path
         d="m -379.64494,139.35526 6.44267,-1.70667 q 0.72533,-0.21333 1.19467,-0.68266 0.512,-0.512 0.512,-1.408 V 84.95526 q 0,-0.938666 -0.55467,-1.450666 -0.55467,-0.512 -1.32267,-0.810667 l -6.57066,-2.432 v -3.029333 l 16.93866,-0.768 v 59.093336 q 0,0.896 0.512,1.408 0.55467,0.512 1.23734,0.68266 l 6.22933,1.70667 v 3.11467 h -24.61867 z"
         style="font-style:normal;font-variant:normal;font-weight:normal;font-stretch:normal;font-size:96px;font-family:'Sitka Text';-inkscape-font-specification:'Sitka Text'"
         id="path905" />
      <path
         d="m -342.9721,105.43526 q 0,-0.896 -0.512,-1.408 -0.512,-0.512 -1.28,-0.85333 l -5.03467,-2.09067 v -3.029333 l 15.36,-2.346667 v 28.50133 q 0,2.98667 0.34133,5.33334 0.34134,2.34666 1.36534,3.968 1.024,1.62133 2.944,2.47466 1.92,0.85334 5.07733,0.85334 1.408,0 2.90133,-0.21334 1.536,-0.21333 2.98667,-0.68266 1.45067,-0.512 2.77333,-1.32267 1.32267,-0.85333 2.304,-2.13333 v -27.05067 q 0,-0.896 -0.512,-1.36533 -0.512,-0.46934 -1.36533,-0.81067 l -4.992,-2.09067 v -3.02933 l 15.40267,-2.432 v 37.888 q 0,0.896 0.512,1.408 0.512,0.46933 1.32266,0.81067 l 5.03467,2.048 v 3.072 l -14.42133,2.38933 h -0.21334 v -7.63733 h -0.46933 q -1.92,2.51733 -3.84,4.05333 -1.87733,1.49333 -3.79733,2.304 -1.87734,0.81067 -3.75467,1.06667 -1.83467,0.256 -3.62667,0.256 -3.02933,0 -5.67466,-0.896 -2.64534,-0.896 -4.608,-2.73067 -1.92,-1.87733 -3.072,-4.82133 -1.152,-2.944 -1.152,-7.04 z"
         style="font-style:normal;font-variant:normal;font-weight:normal;font-stretch:normal;font-size:96px;font-family:'Sitka Text';-inkscape-font-specification:'Sitka Text'"
         id="path907" />
      <path
         d="m -289.6841,129.62726 h 5.03466 l 1.36534,4.13867 q 0.29866,0.85333 0.81066,1.45066 0.55467,0.59734 1.152,0.93867 0.896,0.512 1.92,0.896 1.024,0.384 2.13334,0.68267 1.152,0.29866 2.34666,0.46933 1.19467,0.17067 2.38934,0.17067 1.74933,0 3.54133,-0.384 1.83467,-0.384 3.328,-1.23734 1.49333,-0.896 2.38933,-2.21866 0.93867,-1.36534 0.93867,-3.24267 0,-1.57867 -0.512,-2.688 -0.46933,-1.10933 -1.408,-1.92 -0.93867,-0.81067 -2.304,-1.36533 -1.36533,-0.59734 -3.11467,-1.10934 -2.432,-0.68266 -4.82133,-1.36533 -2.34667,-0.68267 -4.65067,-1.36533 -2.432,-0.72534 -4.26666,-1.92 -1.83467,-1.19467 -3.11467,-2.77334 -1.23733,-1.62133 -1.87733,-3.49866 -0.64,-1.92 -0.64,-4.05334 0,-3.02933 1.536,-5.54666 1.57866,-2.56 4.18133,-4.39467 2.64533,-1.877333 6.05867,-2.901333 3.41333,-1.024 7.168,-1.024 1.96266,0 3.712,0.128 1.74933,0.128 3.328,0.426667 1.62133,0.256 3.11466,0.64 1.536,0.341333 3.15734,0.810666 l 0.17066,11.05067 h -5.07733 l -1.408,-4.43734 q -0.256,-0.68266 -0.81067,-1.23733 -0.55466,-0.55467 -1.152,-0.85333 -1.49333,-0.72534 -3.24266,-1.06667 -1.74934,-0.34133 -3.66934,-0.34133 -1.96266,0 -3.62666,0.42666 -1.62134,0.384 -2.85867,1.152 -1.23733,0.768 -1.92,1.96267 -0.68267,1.152 -0.68267,2.688 0,1.62133 0.46934,2.816 0.512,1.152 1.536,2.09067 1.024,0.93866 2.56,1.664 1.536,0.68266 3.62666,1.32266 0.98134,0.29867 2.00534,0.64 1.024,0.29867 2.00533,0.59734 1.024,0.256 2.00533,0.59733 0.98134,0.29867 1.92,0.55467 2.64534,0.81066 4.65067,1.83466 2.00533,1.024 3.328,2.432 1.36533,1.36534 2.00533,3.2 0.68267,1.792 0.68267,4.18134 0,3.456 -1.664,6.22933 -1.664,2.77333 -4.39467,4.736 -2.73066,1.92 -6.272,2.90133 -3.54133,1.024 -7.21066,1.024 -2.38934,0 -4.56534,-0.256 -2.176,-0.256 -4.13866,-0.72533 -1.96267,-0.42667 -3.75467,-0.93867 -1.792,-0.55466 -3.41333,-1.10933 z"
         style="font-style:normal;font-variant:normal;font-weight:normal;font-stretch:normal;font-size:96px;font-family:'Sitka Text';-inkscape-font-specification:'Sitka Text'"
         id="path909" />
      <path
         d="m -240.81827,101.50993 h -7.424 v -3.925336 q 1.83467,-0.298667 3.28533,-0.554667 1.49334,-0.298667 2.56,-0.938667 1.10934,-0.682666 1.70667,-1.92 0.64,-1.237333 0.768,-3.456 l 0.42667,-6.272 7.21066,-1.365333 v 13.568 h 16.21334 l -0.29867,4.864003 h -15.91467 v 29.824 q 0,1.536 0.896,2.56 0.93867,1.024 2.26134,1.70666 1.36533,0.64 2.816,0.98134 1.45066,0.29866 2.56,0.29866 0.72533,0 1.664,-0.128 0.93866,-0.17066 1.83466,-0.384 0.896,-0.21333 1.664,-0.46933 0.768,-0.256 1.19467,-0.46933 h 1.45067 v 3.49866 q -0.59734,0.384 -1.92,1.10934 -1.28,0.68266 -2.98667,1.408 -1.70667,0.72533 -3.712,1.23733 -2.00533,0.55467 -3.92533,0.55467 -2.51734,0 -4.736,-0.64 -2.21867,-0.59734 -3.92534,-1.74934 -1.664,-1.152 -2.688,-2.85866 -0.98133,-1.70667 -0.98133,-3.84 z"
         style="font-style:normal;font-variant:normal;font-weight:normal;font-stretch:normal;font-size:96px;font-family:'Sitka Text';-inkscape-font-specification:'Sitka Text'"
         id="path911" />
      <path
         d="m -168.77394,131.33393 v 4.90666 q -1.57866,1.28 -3.712,2.60267 -2.09066,1.28 -4.56533,2.304 -2.47467,1.024 -5.248,1.664 -2.77333,0.64 -5.67467,0.64 -4.65066,0 -8.704,-1.536 -4.01066,-1.536 -6.95466,-4.52267 -2.944,-3.02933 -4.65067,-7.424 -1.664,-4.43733 -1.664,-10.19733 0,-5.12 1.57867,-9.55733 1.62133,-4.48 4.52266,-7.76534 2.944,-3.327996 6.99734,-5.20533 4.096,-1.877333 9.00266,-1.877333 4.52267,0 8.064,1.493333 3.584,1.450667 6.05867,3.92533 2.47467,2.47467 3.75467,5.80267 1.32266,3.328 1.32266,6.95467 0,0.42666 -0.0427,1.024 0,0.59733 -0.0427,1.28 -0.0427,0.64 -0.128,1.28 -0.0853,0.59733 -0.17067,1.024 h -32.04266 q 0,9.38666 4.224,14.12266 4.224,4.736 11.904,4.736 2.47466,0 4.69333,-0.55466 2.26133,-0.59734 4.13867,-1.45067 1.92,-0.85333 3.456,-1.83467 1.57866,-1.024 2.688,-1.83466 z m -8.96,-17.62134 q 0,-3.11466 -0.59733,-5.632 -0.55467,-2.56 -1.83467,-4.352 -1.23733,-1.792 -3.28533,-2.73066 -2.00533,-0.98134 -4.90667,-0.98134 -2.56,0 -4.736,0.93867 -2.13333,0.896 -3.79733,2.688 -1.62133,1.74933 -2.64533,4.30933 -1.024,2.51734 -1.28,5.76 z"
         style="font-style:normal;font-variant:normal;font-weight:normal;font-stretch:normal;font-size:96px;font-family:'Sitka Text';-inkscape-font-specification:'Sitka Text'"
         id="path913" />
      <path
         d="m -159.9701,139.35526 5.248,-1.70667 q 0.72533,-0.21333 1.19466,-0.68266 0.512,-0.512 0.512,-1.408 v -29.61067 q 0,-1.10933 -0.64,-1.70667 -0.64,-0.64 -1.32266,-0.93866 l -5.29067,-2.21867 v -3.029333 l 15.104,-2.346667 v 9.94133 h 0.42667 q 1.96266,-2.77333 3.66933,-4.736 1.74933,-1.962663 3.456,-3.199996 1.70667,-1.237334 3.37067,-1.792 1.70666,-0.554667 3.49866,-0.554667 1.024,0 2.09067,0.128 1.06667,0.08533 2.09067,0.341333 1.024,0.256 1.96266,0.768 0.98134,0.469334 1.83467,1.194667 v 10.624003 h -5.20533 l -1.23734,-3.28534 q -0.21333,-0.512 -0.72533,-0.93866 -0.46933,-0.42667 -1.152,-0.72534 -0.64,-0.34133 -1.36533,-0.512 -0.72534,-0.17066 -1.45067,-0.17066 -1.83467,0 -3.37067,0.68266 -1.49333,0.64 -2.77333,1.664 -1.28,0.98134 -2.38933,2.26134 -1.10934,1.23733 -2.09067,2.432 v 25.728 q 0,0.896 0.46933,1.408 0.46934,0.46933 1.23734,0.68266 l 6.61333,1.70667 v 3.11467 h -23.76533 z"
         style="font-style:normal;font-variant:normal;font-weight:normal;font-stretch:normal;font-size:96px;font-family:'Sitka Text';-inkscape-font-specification:'Sitka Text'"
         id="path915" />
      <path
         d="m -114.77244,123.69659 h 5.03467 l 1.792,8.832 q 0.0853,0.59734 0.768,1.23734 0.68267,0.59733 1.152,0.896 1.19467,0.81066 2.60267,1.536 1.408,0.72533 2.90133,1.28 1.535999,0.55466 3.157332,0.896 1.664001,0.34133 3.370667,0.34133 3.285333,0 5.930667,-0.72533 2.688,-0.768 4.522667,-2.176 1.834666,-1.408 2.816,-3.41334 0.981333,-2.00533 0.981333,-4.52266 0,-3.75467 -2.261333,-6.22934 -2.261334,-2.51733 -6.058667,-4.096 -1.834667,-0.768 -3.669334,-1.36533 -1.792,-0.64 -3.584,-1.23733 -1.791999,-0.64 -3.541333,-1.23734 -1.749329,-0.59733 -3.413329,-1.28 -5.16267,-2.13333 -8.10667,-6.016 -2.944,-3.88266 -2.944,-9.386663 0,-3.669333 1.57867,-6.826667 1.62133,-3.157333 4.39466,-5.461333 2.816,-2.304 6.57067,-3.584 3.797333,-1.28 8.149333,-1.28 2.602666,0 5.034666,0.256 2.474667,0.213333 4.736,0.64 2.261334,0.384 4.352,0.896 2.133334,0.512 4.096,0.981333 v 15.658667 h -4.992 l -1.706667,-8.362667 q -0.08533,-0.597333 -0.768,-1.152 -0.639999,-0.597333 -1.151999,-0.938666 -0.768,-0.554667 -1.749334,-1.024 -0.981333,-0.512 -2.176,-0.896 -1.194666,-0.384 -2.56,-0.597334 -1.365333,-0.213333 -2.858667,-0.213333 -3.029333,0 -5.418666,0.682667 -2.346666,0.682666 -4.010666,1.877333 -1.62133,1.194667 -2.47467,2.816 -0.85333,1.578667 -0.85333,3.456 0,1.664 0.384,3.242667 0.42667,1.578666 1.408,2.986666 1.024,1.408 2.688,2.64533 1.706666,1.19467 4.309332,2.13334 1.706667,0.59733 3.370667,1.19466 1.664,0.55467 3.328,1.152 1.706667,0.59734 3.456,1.28 1.749334,0.64 3.712,1.45067 2.133333,0.896 4.181333,2.176 2.048,1.28 3.669334,3.15733 1.664,1.83467 2.645333,4.352 0.981334,2.47467 0.981334,5.84534 0,3.49866 -1.365334,6.82666 -1.322667,3.28534 -4.224,5.84534 -2.858666,2.56 -7.424,4.13866 -4.522666,1.536 -10.837333,1.536 -2.218667,0 -4.650667,-0.34133 -2.389329,-0.34133 -4.906669,-0.896 -2.51733,-0.55467 -5.07733,-1.23733 -2.51733,-0.72534 -5.03467,-1.408 z"
         style="font-style:normal;font-variant:normal;font-weight:normal;font-stretch:normal;font-size:96px;font-family:'Sitka Text';-inkscape-font-specification:'Sitka Text'"
         id="path917" />
      <path
         d="m -62.991104,139.35526 5.162667,-1.70667 q 0.853333,-0.256 1.237333,-0.72533 0.426667,-0.46933 0.426667,-1.32267 V 84.95526 q 0,-0.938666 -0.512,-1.408 -0.512,-0.512 -1.322667,-0.853333 l -5.418667,-2.432 v -3.029333 l 15.786667,-0.768 v 24.149336 2.38933 q 1.92,-2.51733 3.797333,-4.010666 1.877334,-1.536 3.712,-2.346667 1.834667,-0.810667 3.626667,-1.024 1.834667,-0.256 3.584,-0.256 3.029333,0 5.717333,0.896 2.688,0.853333 4.650667,2.730667 2.005333,1.877336 3.157333,4.821336 1.194667,2.944 1.194667,7.04 v 24.53333 q 0,1.024 0.469333,1.536 0.512,0.46933 1.194667,0.72533 l 4.693333,1.70667 v 3.11467 h -20.949333 v -3.11467 l 4.352,-1.70667 q 0.725333,-0.256 1.194667,-0.72533 0.512,-0.512 0.512,-1.536 v -20.864 q 0,-3.02933 -0.384,-5.376 -0.341334,-2.34667 -1.450667,-3.968 -1.066667,-1.62133 -3.029333,-2.47467 -1.962667,-0.85333 -5.12,-0.85333 -1.408,0 -2.944,0.21333 -1.493334,0.21334 -2.944,0.72534 -1.450667,0.46933 -2.773334,1.32266 -1.28,0.85334 -2.261333,2.13334 v 29.312 q 0,0.896 0.469333,1.36533 0.469334,0.42667 1.194667,0.72533 l 4.010667,1.70667 v 3.11467 h -21.034667 z"
         style="font-style:normal;font-variant:normal;font-weight:normal;font-stretch:normal;font-size:96px;font-family:'Sitka Text';-inkscape-font-specification:'Sitka Text'"
         id="path919" />
      <path
         d="m 36.538563,131.33393 v 4.90666 q -1.578667,1.28 -3.712,2.60267 -2.090667,1.28 -4.565334,2.304 -2.474666,1.024 -5.248,1.664 -2.773333,0.64 -5.674666,0.64 -4.650667,0 -8.7040005,-1.536 -4.0106667,-1.536 -6.9546667,-4.52267 -2.944,-3.02933 -4.6506666,-7.424 -1.664,-4.43733 -1.664,-10.19733 0,-5.12 1.5786666,-9.55733 1.6213334,-4.48 4.5226667,-7.76534 2.944,-3.327996 6.9973333,-5.20533 4.0960002,-1.877333 9.0026672,-1.877333 4.522666,0 8.064,1.493333 3.583999,1.450667 6.058666,3.92533 2.474667,2.47467 3.754667,5.80267 1.322667,3.328 1.322667,6.95467 0,0.42666 -0.04267,1.024 0,0.59733 -0.04267,1.28 -0.04267,0.64 -0.128,1.28 -0.08533,0.59733 -0.170666,1.024 H 4.2398958 q 0,9.38666 4.224,14.12266 4.2240002,4.736 11.9040002,4.736 2.474667,0 4.693333,-0.55466 2.261334,-0.59734 4.138667,-1.45067 1.92,-0.85333 3.456,-1.83467 1.578667,-1.024 2.688,-1.83466 z m -8.96,-17.62134 q 0,-3.11466 -0.597334,-5.632 -0.554666,-2.56 -1.834666,-4.352 -1.237334,-1.792 -3.285334,-2.73066 -2.005333,-0.98134 -4.906666,-0.98134 -2.560001,0 -4.736,0.93867 -2.133334,0.896 -3.7973338,2.688 -1.6213334,1.74933 -2.6453334,4.30933 -1.024,2.51734 -1.28,5.76 z"
         style="font-style:normal;font-variant:normal;font-weight:normal;font-stretch:normal;font-size:96px;font-family:'Sitka Text';-inkscape-font-specification:'Sitka Text'"
         id="path921" />
      <path
         d="m 86.601063,131.33393 v 4.90666 q -1.578667,1.28 -3.712001,2.60267 -2.090666,1.28 -4.565333,2.304 -2.474666,1.024 -5.248,1.664 -2.773333,0.64 -5.674667,0.64 -4.650666,0 -8.704,-1.536 -4.010666,-1.536 -6.954666,-4.52267 -2.944,-3.02933 -4.650667,-7.424 -1.664,-4.43733 -1.664,-10.19733 0,-5.12 1.578667,-9.55733 1.621333,-4.48 4.522667,-7.76534 2.943999,-3.327996 6.997333,-5.20533 4.096,-1.877333 9.002667,-1.877333 4.522666,0 8.064,1.493333 3.584,1.450667 6.058666,3.92533 2.474667,2.47467 3.754667,5.80267 1.322666,3.328 1.322666,6.95467 0,0.42666 -0.04267,1.024 0,0.59733 -0.04267,1.28 -0.04267,0.64 -0.128,1.28 -0.08533,0.59733 -0.170666,1.024 h -32.04266 q 0,9.38666 4.224,14.12266 4.224,4.736 11.904,4.736 2.474666,0 4.693333,-0.55466 2.261334,-0.59734 4.138667,-1.45067 1.92,-0.85333 3.456,-1.83467 1.578667,-1.024 2.688,-1.83466 z m -8.96,-17.62134 q 0,-3.11466 -0.597334,-5.632 -0.554666,-2.56 -1.834666,-4.352 -1.237334,-1.792 -3.285334,-2.73066 -2.005333,-0.98134 -4.906666,-0.98134 -2.56,0 -4.736,0.93867 -2.133334,0.896 -3.797334,2.688 -1.621333,1.74933 -2.645333,4.30933 -1.024,2.51734 -1.28,5.76 z"
         style="font-style:normal;font-variant:normal;font-weight:normal;font-stretch:normal;font-size:96px;font-family:'Sitka Text';-inkscape-font-specification:'Sitka Text'"
         id="path923" />
      <path
         d="m 94.551563,160.43259 5.418666,-1.74933 q 0.768001,-0.256 1.194671,-0.72533 0.46933,-0.42667 0.46933,-1.32267 v -51.2 q 0,-0.896 -0.512,-1.408 -0.512,-0.512 -1.322667,-0.85333 l -5.034667,-2.09067 V 98.053927 L 109.39956,95.70726 v 7.59467 h 0.55467 q 1.87733,-2.73067 4.01067,-4.309336 2.13333,-1.621334 4.18133,-2.432 2.048,-0.810667 3.84,-0.981334 1.83467,-0.213333 3.072,-0.213333 4.26667,0 7.63733,1.664 3.41334,1.664 5.76,4.650663 2.34667,2.944 3.584,7.04 1.28,4.05334 1.28,8.78934 0,5.29066 -1.49333,9.94133 -1.49333,4.65067 -4.30933,8.10667 -2.816,3.41333 -6.86934,5.46133 -4.01066,2.00533 -9.13066,2.00533 -1.96267,0 -3.66934,-0.384 -1.70666,-0.384 -3.15733,-0.98133 -1.408,-0.64 -2.56,-1.45067 -1.10933,-0.81066 -1.96267,-1.70666 v 1.96266 16.128 q 0,0.896 0.512,1.32267 0.512,0.46933 1.19467,0.68267 l 6.61333,1.83466 v 3.11467 H 94.551563 Z m 15.615997,-25.13066 q 0.93867,0.64 2.304,1.06666 1.36534,0.42667 2.816,0.72534 1.45067,0.256 2.77334,0.384 1.32266,0.128 2.21866,0.128 3.584,0 6.22934,-1.36534 2.64533,-1.36533 4.352,-3.66933 1.70666,-2.34667 2.56,-5.46133 0.85333,-3.11467 0.85333,-6.61334 0,-3.968 -0.81067,-7.424 -0.81066,-3.456 -2.51733,-5.97333 -1.70667,-2.56 -4.352,-4.01067 -2.60267,-1.45066 -6.22933,-1.45066 -1.06667,0 -2.432,0.256 -1.36534,0.21333 -2.77334,0.81066 -1.36533,0.55467 -2.73066,1.536 -1.32267,0.93867 -2.26134,2.304 z"
         style="font-style:normal;font-variant:normal;font-weight:normal;font-stretch:normal;font-size:96px;font-family:'Sitka Text';-inkscape-font-specification:'Sitka Text'"
         id="path925" />
    </g>
  </g>
</svg>
